<mxfile host="app.diagrams.net" modified="2024-01-10T16:08:23.054Z" agent="Mozilla/5.0 (Macintosh; Intel Mac OS X 10_15_7) AppleWebKit/537.36 (KHTML, like Gecko) Chrome/120.0.0.0 Safari/537.36" etag="4J7JhBBXPFZrp9gPeuo0" version="22.1.18" type="device">
  <diagram name="페이지-1" id="E1mqxw68TTzWUhRgGjAn">
    <mxGraphModel dx="2083" dy="692" grid="1" gridSize="10" guides="1" tooltips="1" connect="1" arrows="1" fold="1" page="1" pageScale="1" pageWidth="827" pageHeight="1169" math="0" shadow="0">
      <root>
        <mxCell id="0" />
        <mxCell id="1" parent="0" />
        <mxCell id="2" value="Agents" style="shape=umlLifeline;perimeter=lifelinePerimeter;whiteSpace=wrap;container=1;dropTarget=0;collapsible=0;recursiveResize=0;outlineConnect=0;portConstraint=eastwest;newEdgeStyle={&quot;edgeStyle&quot;:&quot;elbowEdgeStyle&quot;,&quot;elbow&quot;:&quot;vertical&quot;,&quot;curved&quot;:0,&quot;rounded&quot;:0};size=65;fontSize=14;" parent="1" vertex="1">
          <mxGeometry width="150" height="600" as="geometry" />
        </mxCell>
        <mxCell id="3" value="Controller" style="shape=umlLifeline;perimeter=lifelinePerimeter;whiteSpace=wrap;container=1;dropTarget=0;collapsible=0;recursiveResize=0;outlineConnect=0;portConstraint=eastwest;newEdgeStyle={&quot;edgeStyle&quot;:&quot;elbowEdgeStyle&quot;,&quot;elbow&quot;:&quot;vertical&quot;,&quot;curved&quot;:0,&quot;rounded&quot;:0};size=65;fontSize=14;" parent="1" vertex="1">
          <mxGeometry x="382" width="150" height="600" as="geometry" />
        </mxCell>
        <mxCell id="4" value="API Server" style="shape=umlLifeline;perimeter=lifelinePerimeter;whiteSpace=wrap;container=1;dropTarget=0;collapsible=0;recursiveResize=0;outlineConnect=0;portConstraint=eastwest;newEdgeStyle={&quot;edgeStyle&quot;:&quot;elbowEdgeStyle&quot;,&quot;elbow&quot;:&quot;vertical&quot;,&quot;curved&quot;:0,&quot;rounded&quot;:0};size=65;fontSize=14;" parent="1" vertex="1">
          <mxGeometry x="660" width="150" height="590" as="geometry" />
        </mxCell>
        <mxCell id="5" value="alt" style="shape=umlFrame;dashed=1;pointerEvents=0;dropTarget=0;strokeColor=#B3B3B3;height=20;width=30;fontSize=14;" parent="1" vertex="1">
          <mxGeometry x="-20" y="247" width="260" height="120" as="geometry" />
        </mxCell>
        <mxCell id="6" value="[Scaling Condition Satisfied]" style="text;strokeColor=none;fillColor=none;align=center;verticalAlign=middle;whiteSpace=wrap;fontSize=14;" parent="5" vertex="1">
          <mxGeometry x="-30.004293059125963" y="31.384615384615383" width="249.97429305912598" height="10.256410256410255" as="geometry" />
        </mxCell>
        <mxCell id="8" value="loop" style="shape=umlFrame;dashed=1;pointerEvents=0;dropTarget=0;strokeColor=#B3B3B3;height=20;width=40;fontSize=14;" parent="1" vertex="1">
          <mxGeometry x="-41" y="90" width="871" height="80" as="geometry" />
        </mxCell>
        <mxCell id="10" value="Request HPA information every 10s" style="verticalAlign=bottom;endArrow=block;edgeStyle=elbowEdgeStyle;elbow=vertical;curved=0;rounded=0;fontSize=14;" parent="1" edge="1">
          <mxGeometry relative="1" as="geometry">
            <Array as="points">
              <mxPoint x="276" y="152" />
            </Array>
            <mxPoint x="74.59090909090901" y="152" as="sourcePoint" />
            <mxPoint x="456.5" y="152" as="targetPoint" />
          </mxGeometry>
        </mxCell>
        <mxCell id="13" value="Send Scaling Notification" style="verticalAlign=bottom;endArrow=block;edgeStyle=elbowEdgeStyle;elbow=vertical;curved=0;rounded=0;fontSize=14;" parent="1" edge="1">
          <mxGeometry relative="1" as="geometry">
            <Array as="points">
              <mxPoint x="276" y="320" />
            </Array>
            <mxPoint x="74.59090909090901" y="320" as="sourcePoint" />
            <mxPoint x="456.5" y="320" as="targetPoint" />
          </mxGeometry>
        </mxCell>
        <mxCell id="14" value="Update Replica of Target" style="verticalAlign=bottom;endArrow=block;edgeStyle=elbowEdgeStyle;elbow=vertical;curved=0;rounded=0;fontSize=14;" parent="1" target="4" edge="1">
          <mxGeometry relative="1" as="geometry">
            <Array as="points">
              <mxPoint x="655" y="540" />
            </Array>
            <mxPoint x="456.590909090909" y="540" as="sourcePoint" />
            <mxPoint x="832.4999999999995" y="540" as="targetPoint" />
          </mxGeometry>
        </mxCell>
        <mxCell id="T8Tn_x4nD6eO3AJAOgDA-20" value="[Update Stat information every 1s]" style="text;strokeColor=none;fillColor=none;align=center;verticalAlign=middle;whiteSpace=wrap;fontSize=14;fontStyle=1" vertex="1" parent="1">
          <mxGeometry x="-46.466165413533815" y="225" width="256.4661654135338" height="2.3376623376623376" as="geometry" />
        </mxCell>
        <mxCell id="T8Tn_x4nD6eO3AJAOgDA-21" value="Request HPA information every 10s" style="verticalAlign=bottom;endArrow=block;edgeStyle=elbowEdgeStyle;elbow=vertical;curved=0;rounded=0;fontSize=14;" edge="1" parent="1" target="4">
          <mxGeometry relative="1" as="geometry">
            <Array as="points">
              <mxPoint x="651.4100000000001" y="120" />
            </Array>
            <mxPoint x="460" y="120" as="sourcePoint" />
            <mxPoint x="833" y="120" as="targetPoint" />
          </mxGeometry>
        </mxCell>
        <mxCell id="T8Tn_x4nD6eO3AJAOgDA-22" value="loop" style="shape=umlFrame;dashed=1;pointerEvents=0;dropTarget=0;strokeColor=#B3B3B3;height=20;width=40;fontSize=14;" vertex="1" parent="1">
          <mxGeometry x="-41" y="190" width="301" height="190" as="geometry" />
        </mxCell>
        <mxCell id="T8Tn_x4nD6eO3AJAOgDA-23" value="Request Stat Infromation to All Agents" style="verticalAlign=bottom;endArrow=block;edgeStyle=elbowEdgeStyle;elbow=vertical;curved=0;rounded=0;fontSize=14;" edge="1" parent="1" source="3" target="2">
          <mxGeometry relative="1" as="geometry">
            <Array as="points">
              <mxPoint x="281.41" y="430" />
            </Array>
            <mxPoint x="80.000909090909" y="430" as="sourcePoint" />
            <mxPoint x="461.91" y="430" as="targetPoint" />
          </mxGeometry>
        </mxCell>
        <mxCell id="T8Tn_x4nD6eO3AJAOgDA-24" value="alt" style="shape=umlFrame;dashed=1;pointerEvents=0;dropTarget=0;strokeColor=#B3B3B3;height=20;width=30;fontSize=14;" vertex="1" parent="1">
          <mxGeometry x="327" y="470" width="260" height="100" as="geometry" />
        </mxCell>
        <mxCell id="T8Tn_x4nD6eO3AJAOgDA-25" value="[Scaling Condition Satisfied]" style="text;strokeColor=none;fillColor=none;align=center;verticalAlign=middle;whiteSpace=wrap;fontSize=14;" vertex="1" parent="T8Tn_x4nD6eO3AJAOgDA-24">
          <mxGeometry x="-0.004293059125963339" y="16.670512820512823" width="249.97429305912598" height="8.547008547008547" as="geometry" />
        </mxCell>
      </root>
    </mxGraphModel>
  </diagram>
</mxfile>
